<svg width="512" height="512" viewBox="0 0 512 512" xmlns="http://www.w3.org/2000/svg" role="img" aria-label="停車單稽查系統">
  <defs>
    <linearGradient id="bg" x1="0" y1="0" x2="1" y2="1">
      <stop offset="0" stop-color="#f2b950"/>
      <stop offset="0.55" stop-color="#e6a020"/>
      <stop offset="1" stop-color="#d1901a"/>
    </linearGradient>
    <linearGradient id="shine" x1="0" y1="0" x2="0" y2="1">
      <stop offset="0" stop-color="#ffffff" stop-opacity="0.26"/>
      <stop offset="0.55" stop-color="#ffffff" stop-opacity="0"/>
    </linearGradient>
    <filter id="drop" x="-20%" y="-20%" width="140%" height="140%">
      <feDropShadow dx="0" dy="10" stdDeviation="12" flood-color="#7a5205" flood-opacity="0.24"/>
    </filter>
  </defs>

  <rect x="0" y="0" width="512" height="512" rx="116" fill="url(#bg)"/>
  <rect x="0" y="0" width="512" height="512" rx="116" fill="url(#shine)"/>

  <g filter="url(#drop)" fill="#ffffff">
    <rect x="114" y="102" width="83" height="308" rx="38"/>
    <path fill-rule="evenodd" d="M197 102h118a97 97 0 0 1 0 194h-118V102zm76 67h41a30 30 0 0 1 0 60h-41v-60z"/>
    <circle cx="371" cy="374" r="97"/>
    <path d="M327 377l32 33 70-73" fill="none" stroke="#e6a020" stroke-width="33" stroke-linecap="round" stroke-linejoin="round"/>
  </g>
</svg>
